<svg xmlns="http://www.w3.org/2000/svg" xmlns:xlink="http://www.w3.org/1999/xlink" width="734.03345" height="243.57994" viewBox="0 0 734.03345 243.57995"><defs><path id="reuse-0" d="M 0,0 H 420.945 V 595.276 H 0 Z"/></defs><defs><clipPath id="a" clipPathUnits="userSpaceOnUse"><use xlink:href="#reuse-0" transform="translate(-97.7953,-523.05681)"/></clipPath><clipPath id="b" clipPathUnits="userSpaceOnUse"><use xlink:href="#reuse-0" transform="translate(-49.480301,-527.73681)"/></clipPath><clipPath id="c" clipPathUnits="userSpaceOnUse"><use xlink:href="#reuse-0" transform="translate(-86.7904,-521.54341)"/></clipPath><clipPath id="d" clipPathUnits="userSpaceOnUse"><use xlink:href="#reuse-0" transform="translate(-60.405202,-514.18382)"/></clipPath></defs><path fill="#0096d5" d="m 0,0 -3.319,-4.735 c -6.474,3.801 -14.388,7.245 -21.527,4.624 -1.907,-0.754 -2.439,-0.97 -3.744,-1.82 -0.021,-0.015 -0.224,-0.163 -0.248,-0.181 -0.015,-0.006 -1.204,0.836 -1.204,0.836 0,0 0.251,0.214 0.298,0.256 4.738,4.214 10.325,7.336 18.301,5.92 C -6.916,4.119 -2.978,2.181 0,0" clip-path="url(#a)" transform="matrix(11.927247,0,0,-11.927247,734.03343,62.5678)"/><path fill="#0096d5" d="m 0,0 c 6.018,-0.128 11.317,-3.478 16.048,-6.785 4.817,-3.365 10.107,-6.475 15.837,-8.075 2.883,-0.808 5.972,-1.18 8.927,-0.529 -2.039,-2.065 -4.503,-3.442 -7.384,-4.035 -2.892,-0.594 -5.942,-0.574 -8.833,0.048 -2.877,0.619 -5.501,1.702 -8.12,3.02 -2.659,1.335 -5.191,3.208 -7.535,4.996 -3.495,2.661 -7.288,5.301 -11.599,6.52 -2.152,0.611 -4.346,0.817 -6.51,0.096 -0.991,-0.329 -1.996,-0.797 -2.738,-1.525 -0.344,-0.335 -0.651,-0.778 -0.884,-1.197 -0.124,-0.217 -0.41,-0.984 -0.418,-1.078 -0.013,0.034 0.008,0.345 0.051,0.647 0.051,0.371 0.155,0.735 0.278,1.085 0.237,0.673 0.59,1.292 1.025,1.861 0.865,1.127 2.008,2.027 3.228,2.761 C -6.053,-0.638 -3.014,0.067 0,0" clip-path="url(#b)" transform="matrix(11.927247,0,0,-11.927247,157.76845,6.7482797)"/><path fill="#fdc62c" d="m 0,0 c -0.415,-0.413 -2.658,-2.68 -4.129,-4.18 0.272,1.078 1.288,5.005 1.314,5.099 C -2.903,0.943 -2.993,0.965 -3.079,0.987 -3.225,0.674 -4.84,-2.814 -5.305,-3.817 L -5.49,1.549 c -0.12,0.016 -0.24,0.032 -0.36,0.043 l -1.096,-5.128 -2.261,5.307 -0.228,-0.023 1.273,-6.121 -5.223,5.357 c -0.066,-0.027 -0.111,-0.041 -0.172,-0.066 l 3.791,-5.673 -5.734,2.724 -0.095,-0.126 0.009,-0.009 h -0.015 l -0.032,-0.046 5.867,-4.118 c 0.863,-0.43 1.679,-0.791 2.443,-1.059 1.176,-0.416 2.673,-0.878 4.313,-1.217 0.674,-0.142 2.236,-0.315 2.236,-0.315 l 5.583,1.507 0.183,0.254 -5.933,-0.594 6.776,3.798 -0.098,0.13 c -0.005,0 -1.376,-0.47 -3.071,-1.102 -1.5,-0.558 -3.25,-1.187 -4.512,-1.569 L 3.24,-1.86 3.114,-1.774 c -0.003,-10e-4 -5.276,-3.152 -6.39,-3.835 0.537,0.95 3.465,5.352 3.525,5.458 C 0.276,-0.099 0.075,-0.031 0,0" clip-path="url(#c)" transform="matrix(11.927247,0,0,-11.927247,602.77513,80.61844)"/><path fill="#0096d5" d="m 0,0 c -1.169,-1.148 -3.159,-2.479 -4.463,-3.106 -1.613,-0.785 -3.237,-1.485 -5.689,-1.892 -1.405,-0.23 -3.197,-0.326 -4.63,-0.201 -2.778,0.237 -5.811,1.299 -7.795,3.782 -1.107,1.385 -1.679,3.159 -1.56,4.928 0.106,1.619 1.416,3.127 2.732,3.817 -0.529,-0.73 -0.642,-2.034 -0.467,-2.877 0.239,-1.161 0.929,-2.289 1.515,-2.872 1.193,-1.183 2.427,-2.01 4.558,-2.633 2.499,-0.732 4.098,-0.848 6.154,-0.677 3.363,0.286 4.662,0.738 6.303,1.36 0.709,0.269 1.305,0.742 1.868,1.057 C -0.476,0.2 0,0.002 0,0" clip-path="url(#d)" transform="matrix(11.927247,0,0,-11.927247,288.07249,168.3982)"/></svg>